<mxfile host="app.diagrams.net" agent="Mozilla/5.0 (Windows NT 10.0; Win64; x64) AppleWebKit/537.36 (KHTML, like Gecko) Chrome/135.0.0.0 Safari/537.36" version="26.2.9">
  <diagram name="Page-1" id="qzedSx6bV3eZm3rME_6Y">
    <mxGraphModel dx="832" dy="428" grid="1" gridSize="10" guides="1" tooltips="1" connect="1" arrows="1" fold="1" page="1" pageScale="1" pageWidth="850" pageHeight="1100" math="0" shadow="0">
      <root>
        <mxCell id="0" />
        <mxCell id="1" parent="0" />
        <mxCell id="BLc_GRIXi65xrddfqStw-1" value="" style="rounded=0;whiteSpace=wrap;html=1;" vertex="1" parent="1">
          <mxGeometry x="120" y="40" width="630" height="380" as="geometry" />
        </mxCell>
        <mxCell id="BLc_GRIXi65xrddfqStw-2" value="" style="shape=image;verticalLabelPosition=bottom;labelBackgroundColor=default;verticalAlign=top;aspect=fixed;imageAspect=0;image=data:image/jpeg,/9j/4AAQSkZJRgABAQEAYABgAAD/2wBDAAMCAgMCAgMDAwMEAwMEBQgFBQQEBQoHBwYIDAoMDAsKCwsNDhIQDQ4RDgsLEBYQERMUFRUVDA8XGBYUGBIUFRT/2wBDAQMEBAUEBQkFBQkUDQsNFBQUFBQUFBQUFBQUFBQUFBQUFBQUFBQUFBQUFBQUFBQUFBQUFBQUFBQUFBQUFBQUFBT/wAARCAA/AMQDASIAAhEBAxEB/8QAHwAAAQUBAQEBAQEAAAAAAAAAAAECAwQFBgcICQoL/8QAtRAAAgEDAwIEAwUFBAQAAAF9AQIDAAQRBRIhMUEGE1FhByJxFDKBkaEII0KxwRVS0fAkM2JyggkKFhcYGRolJicoKSo0NTY3ODk6Q0RFRkdISUpTVFVWV1hZWmNkZWZnaGlqc3R1dnd4eXqDhIWGh4iJipKTlJWWl5iZmqKjpKWmp6ipqrKztLW2t7i5usLDxMXGx8jJytLT1NXW19jZ2uHi4+Tl5ufo6erx8vP09fb3+Pn6/8QAHwEAAwEBAQEBAQEBAQAAAAAAAAECAwQFBgcICQoL/8QAtREAAgECBAQDBAcFBAQAAQJ3AAECAxEEBSExBhJBUQdhcRMiMoEIFEKRobHBCSMzUvAVYnLRChYkNOEl8RcYGRomJygpKjU2Nzg5OkNERUZHSElKU1RVVldYWVpjZGVmZ2hpanN0dXZ3eHl6goOEhYaHiImKkpOUlZaXmJmaoqOkpaanqKmqsrO0tba3uLm6wsPExcbHyMnK0tPU1dbX2Nna4uPk5ebn6Onq8vP09fb3+Pn6/9oADAMBAAIRAxEAPwD9U6KKKACiiigBsjiONnPRRk15Xc/GK9+0SfZ7G3EOfk8zcWx74PWvUbr/AI9pf9w/yr5sr8N8TM/zLJXhIZfVdPn527W1ty23T7s+syLB0MV7R1o3tb9T1Xwx8VF1G/FtqcUVqsmBHNHnaG9Gyf1rvbq5SztZrh8mOJGkbb1wBnivm2u48M+Pnj0e60nUGMiPA8cEx5KkqQFPt6elfO8J+I1bllgs4neTT5Jvv0jLyvs/k+67cxySN1Vwy06r9UWJvjFf+a/lWNsIsnaH3E47Z561asfjC/2a5+12SCcLmDySdrN6Nnp6/hXmtFfnNPj7iOnPn+tN76NRtr5W6bo9uWT4GSt7P8zvf+Fxan/z5Wn/AI9/jXc+CfFZ8V6dJK8PkzwtscL9055BHevCa6/4feMo/DVxJb3KZs7hgWkX7yHpn3FfU8J8d5hHNqcc3xTdGV07pWTa0ei01tr23ODMcoovDyeGp++u34npvjDxJ/wi2jm7EXnSu4ijU9NxBOT7YBrgP+Fxan/z5Wn/AI9/jUHxF8axeIHWwswGs4ZN5mPWRgCOPbk/WuJrbjDjrHf2rOnk+KaoxSXupWb6u7Wva+3buRlmU0vq6liafvPv2Pc/D/jW31Tw2+q3e20WFjHNzxuAB+X1zkcVx958Yrz7TJ9lsoPs+fk83dux74NcEbyY2a2vmN9nVzII88biACfrgCoa8fMPEfOcTQoUcPU9m4Jc0klecu+1kvJb7+S6aOR4WnOcpq93ouyO9/4XFqf/AD5Wn/j3+NH/AAuLU/8AnytP/Hv8a4KivB/144j/AOgyX4f5HZ/ZOC/59L8T1fS/idPqmnssVisuqK6n7OhOJI88lepyB2/HnGK723keSCN5IzDIygtGSCVOORkcHHtXzbDM9vKkkbtHIh3KynBB9a+i9Ime40mylkbdJJAjM3qSoJNfu/h3xNjc+daljpuUqcY9rNXeuivzdHrZpbXPkc6wNLB8sqSsm33/AKsW6KKK/aj5YKKKKACiiigAooooAKKKKAIrr/j2l/3D/KvmyvpO6/49pf8AcP8AKvmyv5t8X/jwPpU/9sPuOGtqvy/UKKuaTpNxrV39ltV3zlGdV6bsDOPrgVUkRo3ZHUo6nBVhgg+hr+fZUKsaUazi+RtpPo2rXXqrr70fZ80XJxvqhK1PDuhSeIr57OFgs3lM8e7oSMHB+vNZddf8K/8AkbY/+uL/AMq9nh/CUswzXDYSurwnNRfo3Y5cZUlRw86kN0rnK3VrNY3EkE8bRTRnayMMEGoq9u8beCIfE9uZodsOoxj5JOgcf3W/x7V4rc20tncSQTIY5o2KOrdQR1FexxVwriuGMVyT96lL4Jd/J9pLr33RzZfmFPH07rSS3X9dCOnwwyXEyRRI0kjnaqqMkn0pIYnnlSONS8jsFVR1JPQV7P4H8CxeHIVuroLLqLjk9REPQe/qaz4X4XxfE2K9lS92nH45dEv1b6L79B5hmFPAU+aWsnsu/wDwDyvxF4dn8N3Frb3LAzywCZlX+DLMNue/Ssqu5+MH/Iy23/Xov/ob1w1cHEmBo5Zm+IwWH+CDsr77I2wNaVfDQqz3aPcPCvh3Srjw3pssumWcsj26Fne3QknHUnFVtY+F+l6retcKz2QIA8q1REQY74x1rzyy+IWt6fZw20FyiwwqERfKU4A98VkaxrN1rt4bq8cSTlQpZVC8DpwK/V8Vxpw1UyylhZYD2s4qN00oK6Vm+aPM36W1PnaeV46NeVRVuVO/d/g7Hp8fwg0tJEZrq6kUEEqSoBHpwK7mGJIIkjjUJGihVUdABwBXzZDM9vKkkbtHIh3KynBB9a+i9Ime40mylkbdJJAjM3qSoJNfb+HucZXmM8RTwGBWHklFu0ubmWvVpNW7HlZ1hsRQUHWq86d+lrFuiiiv2g+XCiiigAooooAKKKKACiiigCO4UvBIoGSVIH5V833FvLZ3EkE0bRSxsVZGGCCK+lKjaCJ2JaNWPqVBr834x4PXFaoNV/ZunzfZ5k1K3mux7mWZn/Z/P7nMpW622PGvhZazTeKopkjZooUcyP2XKkDP412Pj7wCuuI9/YIE1BRl0HAmH/xXv3rtUiSPOxFXPXaMU+oyvgbB4TJJ5LjJe1UpOXNazTaSTjvZpLu7630dh4jNqtTFrFUlytK1t9PM+aJEaN2R1KOpwVYYIPoa7T4T2c8viQ3KxMYIomDydgT0H1r1828TEkxISep2inJGsYwihR6KMV8pk3hesrzGjjp4vmVOXNZQte22vM/np9x6OKz/AOsUJUlTtzK2/wDwB1eB+OLWa18VaiJY2j8yZpEz/EpPBFe+Ux4Y5Dl0Vj6sAa+74u4XXFOEp4f2vs3CV72v0ta11+Z5GW4/+z6jny811bsfP3he0mvPEGnxwRtI4nRyF7AMCT+VfQlMSGOM5RFU+qgCn1nwhwouFcPVpOt7Rzad7cqVlppd/mPMsw/tCcZcvKl8zlPHXglPFFuJ4D5eoQrtRifldeTtPp1OD714tc20tncSQTxtFNGdrIwwQa+lKjaCJ2JaNWPqVBrxOKfD3C8Q4hYyhU9jUfxO11LztdWfn1OvL86qYKHspx5o9NbWPmuivpP7LD/zxj/75FH2WH/njH/3yK+H/wCIQVP+g5f+C/8A7c9X/WVf8+vx/wCAeLeB/A8via4E84aLToz8z9DIf7q/1Ne1wwpbwxxRrtjjUKq+gAwBTlUIoCgKPQDFLX67wvwthOGMM6VF81SXxTtZvyS6JdEfN5hmFTH1OaWkVsgooor7U8sKKKKACiiigAr5O/b+8WfFH4T+AP8AhP8AwH8SJfDNnaSWmny6GNFs7pJ5JZypnM0yMykK6jaBj5Pc19Y1xHxi+D/h346eCZvCnimK4l0iWeG5ZbWYxPvicOnzDtkCgD5ol/bE1b4C/EC1+G3ja7g+Id1Hq1pp9z4m+3WdnqDfamAVhpttGyrHEWVSZHids5CsMEz+Kv23tZ1Gz+LXh6y8Gal4Y8Q+A9KvrrWdTS9gmSydDi2MHmRMsxmHzjegCqDkHofUfE/7F/w58V+KdZ165XWre41bVbbXLq2tNUkjtmvoMeXP5X3S3XrkfMeB2o/8ML/C/bqLrFrCXurWuoWer366i32jVY7x98ouWx+8IbDKcDaQKAD40fGzVvA/7IEPjPStTEPjLVdGsk0Z7i1FxNdajcxp5caQxoVeVizYUJtz1AUGue/YI+PWqfGDwLr1l4n8Qyaz4m07U5nW1vIo11CysC5jhS98qNI0mMsVx8gAbYFJHevX/HHwD8JfEL4X6X4D1aC8Gj6ULU6fcWt08N3Zy2wAgmimXBWRQPve59ax/gz+y/4Q+BPiDV9Z8M3mvSahrSD+1pNU1WS8/tGYOz/aZvMzmbLt84xwx45NAHNfsw/FTxR8RPiF8dNM8Q6p/aFj4a8XS6XpUX2eKL7NbBSQmUUF/q5J968P8Fft/eJLHwXpkUPg7UviPr93Z61q7T3eo2mnGK2sbiRXDeXAEwEQ42qWJ2ggkk17bqH7C/w4vviNqfjVLvxNY6xqWp/2tdJY61LDby3G/fkxrwRnse3FX/Df7Fnw08K+T9gtdSXydN1LSV8y9Zv3F8zNcDp1JY4PagDyez/4KTWNjpOtan4o+HOqeHbSPwpb+LtF26jFdSarazXUdpGCqKPJYzyqMEsdoLEDgHV0z9vDUdI1iDwr46+Gtx4W8djxLo+g3WkpqsdzDHDqQkaG5WZFIfaI8MnHJHPUD0O8/Yp+Fmp2NvZX+k3V/ZweE08FpDcXbFf7PSdbhOmD5qyqrCTqCorIk/YL+Gt94Q1nRtVvPE2u6lq17a39x4n1TWZJ9XEtsGW2K3BHyiNXZVG3oec4BABxXxJ/4KGx+A38QxwfD64vho/i268Ky31zqRt7GNoURvOmnWCTyg5cBVKn7rEsAKx/E37eFx4U1rWPFMun3V9oVn4AsvEZ8N2uo2E9sJ5tUSzYpeQJIXYb+okKYH3FbOPWNP8A2IfAWh6Dcafo+r+L9GurjVZtZl1ey1+Zb6W4miEU5eVs7xIqjduBOckEZqvJ+wP8IW8N3OhQ6XqFrplxoMXhySGG/cZtUvRfZycne04LFu+SKAOG1b/goYfB8fi7TvF/w3uvDPizR9R0vTbHR59ZgljvWv0kkt2kuVXZABHEzPneF6ZJzXsf7O/7RVv8evCWu6m2iPomp6HfSWN7YwXQvYXKqGWS3nVVE0bqeDtByCCO5h8afsk/D7x3r3iTXNSt9QTWdck06d7+1vWims7ixUraz2zD/VSIGPzDOcnIwcV2/wAL/hfpnwp0G403Tr7VtVkurp7271DXL+S8u7mZgAWeRzxwoAVQFGOBycgHx58Lvid8Z/iZ8M9E+O//AAuLwt4V0bVdceL/AIQ7xLDBaaRDYpcyQfZzd7Gl+0MY9ytwTuA6cV6DY/t8RXXjK2ST4fahb/D3UddufDGl+MG1GI/a9RiDfuzahd8cbsrBZCT7gcgdbN+wj8JZviBF4pGmajHFHqP9sf8ACPR6jINIa+ByLg2udu/PYYXkjbjirVj+xN8MtO+JE3jCK31UyNeXGpQ6K+ou2l2t7OpWW6itvurKQTz0BwQBhcAHjGm/8FIPEmt2Gl3enfA+9uI9Z0K78QaXu8SW6efb2juLpnzFmMKI3K9Wc7QFAORd8Uf8FI/7N0251XRPhff67o2n6BpfiPU7ttXhtjaWt4UXbsKEvIjuF2rw2CcqBz7Pof7Hvw68P2Xh61s7bUBFoWh33h2z33jEi0uyxmDccsS7YbtWdH+w/wDC+Pw1rehC11P+z9Y0Sy8P3S/bm3G0tXV4QDjhsqMt3oA8t1j9t/V9UefR7/wtq/w98SaT4v8AD+lXVnbX9neme01JJJIGZ3gdAGRMuiDcuQFkBzV3wn/wUNHiTWvF1i/w5u7ebQrS/uV0pdWj/tlzbAkJJYSRxuN6gtugacKAd2MV61rn7Ifw88ReKdS8QXltqDajqGo6Pqk7JeFVM+mRNHaEDHACsdw/irKh/Yj+HP8AwkU2sXtx4k1aRYL22063v9cnki0iO7DCcWnIaIkM2DuJGeKAPH7f9va4+IXgfRtWs9P/AOEZnbxbo2kSroOuWeoPJHd+ZujmjnthLDtZCrhoYySP3cpwxGtov/BQi7vtS07Vrz4cy2nw51+41Oy8P+IF1WN57uezR2IltwmYlkMbKDk4I5yOa9E0z9hn4b2bPc30/iHxBrEmpafqcus6xqz3F5LJZBhbIzkAbFDEYA5wMk4FN0r9hH4VaP4tutchtdXeJzePaaNNqcj6dpst0hS4ltoDxG7BjzyBxgDauADD+BX7a178XviF4U8Oar8N7zwjZeLNDk1zQ9Sl1aK7+1RxtiRWjRAYxwSCTkjHyjNfUdeUeEf2ZfBHgfXPA2raXBepeeDdJl0XSTLdFlW2k+8HGPmb3r1egAooooA//9k=;" vertex="1" parent="1">
          <mxGeometry x="150" y="200" width="133.78" height="43" as="geometry" />
        </mxCell>
        <mxCell id="BLc_GRIXi65xrddfqStw-3" value="" style="endArrow=classic;html=1;rounded=0;entryX=0.381;entryY=0.474;entryDx=0;entryDy=0;entryPerimeter=0;" edge="1" parent="1" target="BLc_GRIXi65xrddfqStw-1">
          <mxGeometry width="50" height="50" relative="1" as="geometry">
            <mxPoint x="283.78" y="220" as="sourcePoint" />
            <mxPoint x="333.78" y="170" as="targetPoint" />
          </mxGeometry>
        </mxCell>
        <mxCell id="BLc_GRIXi65xrddfqStw-4" value="&lt;b&gt;Extract&lt;/b&gt;" style="text;html=1;align=center;verticalAlign=middle;whiteSpace=wrap;rounded=0;" vertex="1" parent="1">
          <mxGeometry x="283.78" y="190" width="60" height="30" as="geometry" />
        </mxCell>
      </root>
    </mxGraphModel>
  </diagram>
</mxfile>
